<svg aria-hidden="true" style="position:absolute;width:0;height:0;overflow:hidden" xmlns="http://www.w3.org/2000/svg">
  <defs>
    <symbol id="uk" viewBox="0 0 81 32">
      <path fill="#fff" style="fill:var(--color1, #fff)" d="M30.753 17.318V7.461h4.255c.732 0 1.372.133 1.92.399s.975.65 1.28 1.15c.305.501.457 1.101.457 1.8 0 .706-.157 1.301-.472 1.786-.311.484-.749.85-1.314 1.097-.561.247-1.218.371-1.968.371H32.37v-2.079h2.002c.314 0 .582-.038.804-.116.225-.08.396-.207.515-.38.122-.173.183-.399.183-.679 0-.282-.061-.512-.183-.688a1.024 1.024 0 0 0-.515-.395 2.2 2.2 0 0 0-.804-.13h-.943v7.72h-2.676zm5.775-4.524 2.464 4.524h-2.907l-2.406-4.524h2.849zm6.7 4.658c-.789 0-1.47-.151-2.041-.452a3.17 3.17 0 0 1-1.314-1.309c-.305-.571-.457-1.255-.457-2.05 0-.764.154-1.431.462-2.002s.743-1.016 1.304-1.333c.561-.318 1.224-.476 1.987-.476.558 0 1.064.087 1.516.26s.839.425 1.16.756c.321.327.568.725.741 1.194s.26.996.26 1.583v.616h-6.603v-1.463h4.158a1.022 1.022 0 0 0-.163-.558 1.04 1.04 0 0 0-.419-.38 1.23 1.23 0 0 0-.592-.14 1.27 1.27 0 0 0-.592.14c-.18.09-.324.215-.433.375a1.06 1.06 0 0 0-.169.563v1.579c0 .237.05.449.149.635s.242.332.428.438c.186.106.41.159.673.159.183 0 .35-.026.501-.077.154-.051.285-.125.395-.221a.905.905 0 0 0 .241-.356h2.426a2.774 2.774 0 0 1-.592 1.338c-.311.375-.724.667-1.237.876-.511.205-1.107.308-1.791.308zm11.46-5.12h-2.445c-.013-.151-.066-.281-.159-.39s-.213-.193-.361-.25a1.227 1.227 0 0 0-.481-.091c-.228 0-.424.042-.587.125s-.244.202-.241.356a.4.4 0 0 0 .139.303c.1.093.291.165.573.217l1.501.27c.757.138 1.32.371 1.69.698.372.324.56.759.563 1.304-.003.526-.16.983-.471 1.372-.308.385-.73.683-1.266.895-.532.209-1.141.313-1.824.313-1.129 0-2.013-.231-2.652-.693-.635-.462-.99-1.072-1.064-1.829h2.637a.758.758 0 0 0 .347.544c.199.125.449.188.751.188.244 0 .445-.042.602-.125.16-.083.242-.202.245-.356-.003-.141-.074-.253-.212-.337-.135-.083-.347-.151-.635-.202l-1.309-.231c-.754-.132-1.319-.382-1.694-.751s-.561-.844-.558-1.425c-.003-.513.131-.948.404-1.304.276-.359.669-.632 1.179-.818.514-.189 1.121-.284 1.824-.284 1.068 0 1.911.221 2.527.664.619.443.945 1.056.977 1.838zm5.619-2.407v1.925h-4.87V9.925h4.87zM56.38 8.154h2.656v6.786c0 .103.018.189.053.26.035.067.09.119.164.154a.718.718 0 0 0 .284.048c.08 0 .173-.01.279-.029.109-.019.189-.035.241-.048l.385 1.867a9.326 9.326 0 0 1-.51.13 4.515 4.515 0 0 1-.78.101c-.609.032-1.121-.03-1.535-.188-.414-.16-.725-.412-.934-.756s-.309-.773-.303-1.29V8.153zm7.071 9.279c-.472 0-.889-.077-1.251-.231-.36-.157-.642-.395-.847-.712s-.308-.722-.308-1.213c0-.404.069-.749.207-1.035.138-.289.331-.525.578-.707s.534-.322.862-.419a5.261 5.261 0 0 1 1.068-.188c.414-.032.746-.071.996-.116.253-.048.436-.114.549-.197a.41.41 0 0 0 .169-.342v-.019c0-.193-.074-.34-.221-.443s-.337-.154-.568-.154c-.253 0-.46.056-.621.168-.157.109-.252.278-.284.505h-2.445c.032-.449.175-.863.428-1.242.257-.382.631-.687 1.121-.914.491-.231 1.104-.347 1.839-.347.529 0 1.004.063 1.425.188.42.122.778.294 1.073.515.295.218.52.475.674.77.157.292.236.61.236.953v5.063h-2.484v-1.04h-.058a2.148 2.148 0 0 1-.539.669c-.209.17-.448.294-.717.371-.266.077-.56.116-.881.116zm.867-1.675c.202 0 .392-.042.568-.125.18-.083.326-.204.438-.361s.168-.348.168-.573v-.616c-.07.029-.146.056-.226.082a3.03 3.03 0 0 1-.25.072 5.932 5.932 0 0 1-.582.116 1.508 1.508 0 0 0-.506.159.761.761 0 0 0-.289.265.666.666 0 0 0-.091.347c0 .205.072.363.217.472s.329.164.553.164zm5.081 1.56V9.925h2.58v1.405h.077c.135-.52.348-.9.64-1.141.295-.241.64-.361 1.035-.361.116 0 .23.01.342.029.116.016.226.04.332.072v2.267c-.131-.045-.294-.079-.486-.101s-.358-.034-.496-.034c-.26 0-.494.059-.703.178a1.254 1.254 0 0 0-.486.491 1.461 1.461 0 0 0-.178.736v3.85H69.4zm10.589-7.393v1.925h-4.871V9.925h4.871zm-3.927-1.771h2.657v6.786c0 .103.018.189.053.26.035.067.09.119.164.154a.718.718 0 0 0 .284.048c.08 0 .174-.01.279-.029.109-.019.189-.035.241-.048l.385 1.867a9.326 9.326 0 0 1-.51.13 4.515 4.515 0 0 1-.78.101c-.61.032-1.121-.03-1.536-.188-.414-.16-.725-.412-.934-.756s-.309-.773-.303-1.29V8.153zM30.65 23.718v-2.053h.848c.154 0 .286.03.398.09s.199.143.26.25c.061.106.091.23.091.371s-.031.266-.093.372c-.061.106-.149.187-.264.246s-.25.087-.407.087h-.523v-.391h.431c.075 0 .137-.013.188-.039s.089-.063.115-.109c.026-.047.039-.103.039-.165s-.013-.118-.039-.164c-.026-.047-.065-.083-.115-.108s-.113-.038-.188-.038h-.245v1.653h-.496zm4.824-1.027c0 .226-.043.417-.13.575s-.205.276-.353.358c-.148.082-.313.122-.497.122s-.351-.041-.498-.123-.265-.202-.352-.358c-.086-.157-.129-.348-.129-.574s.043-.417.129-.575c.087-.157.204-.276.352-.358s.314-.122.498-.122.35.041.497.122.266.201.353.358c.087.157.13.349.13.575zm-.507 0c0-.134-.019-.247-.057-.339s-.092-.162-.162-.21c-.07-.047-.155-.071-.254-.071s-.183.024-.254.071c-.071.047-.125.117-.163.21s-.056.205-.056.339.019.247.056.339c.038.092.093.162.163.21s.155.071.254.071.184-.024.254-.071.125-.117.162-.21a.89.89 0 0 0 .057-.339zm2.619 1.055c-.156 0-.295-.027-.416-.08s-.215-.129-.285-.224a.545.545 0 0 1-.106-.328h.499c.002.045.016.085.043.119s.063.061.109.08c.046.019.099.029.157.029s.111-.01.156-.031c.045-.021.081-.05.106-.087s.038-.08.037-.128c.001-.048-.013-.091-.041-.128s-.068-.067-.119-.087a.471.471 0 0 0-.18-.031h-.2v-.353h.2c.061 0 .114-.01.16-.03s.083-.048.109-.084a.206.206 0 0 0 .038-.126.22.22 0 0 0-.126-.203.374.374 0 0 0-.286 0 .254.254 0 0 0-.105.082.211.211 0 0 0-.041.123h-.474c.001-.122.035-.23.102-.323s.158-.167.273-.22c.116-.053.247-.079.395-.079s.276.026.388.077c.111.051.198.122.261.211s.093.188.093.3c.001.116-.037.211-.113.286s-.173.121-.292.138v.016c.159.019.279.07.36.154s.122.189.121.316c0 .119-.035.225-.105.317s-.166.164-.291.217a1.086 1.086 0 0 1-.426.078zm2.062-.028v-.389l.056-.006c.072-.009.131-.038.177-.087s.08-.13.103-.239c.024-.11.04-.258.046-.444l.033-.888h1.441v2.053h-.48v-1.662h-.502l-.032.68c-.011.235-.041.424-.089.569s-.123.249-.224.315a.725.725 0 0 1-.404.099h-.124zm3.47.028v-.393h.105c.057 0 .102-.006.137-.017s.062-.031.081-.057a.325.325 0 0 0 .05-.104l.023-.063-.758-1.447h.509l.456.922.367-.922h.501l-.706 1.627c-.037.08-.081.155-.131.225s-.113.124-.189.166a.585.585 0 0 1-.286.063h-.16zm2.829-2.082h.48v.654c0 .072.012.129.037.173s.066.077.121.097a.66.66 0 0 0 .219.03l.098-.002c.04-.001.084-.005.128-.008.046-.003.088-.008.127-.013s.07-.011.092-.018v.382a.678.678 0 0 1-.096.02 2.229 2.229 0 0 1-.258.024 1.272 1.272 0 0 1-.542-.07.625.625 0 0 1-.3-.227.664.664 0 0 1-.106-.389v-.654zm1.213 0h.483v2.053h-.483v-2.053zm1.934 2.054v-2.053h1.432v.403h-.936v.421h.862v.404h-.862v.422h.936v.403h-1.432zm2.787 0v-2.053h.497v.824h.809v-.824h.495v2.053h-.495v-.825h-.809v.825h-.497zm3.157 0v-2.053h.496v.824h.809v-.824h.495v2.053h-.495v-.825h-.809v.825h-.496zm4.794 0h-.495v-1.653h-.245c-.074 0-.137.011-.187.032s-.09.052-.116.094c-.026.041-.039.094-.039.157s.013.116.039.156c.026.04.065.07.116.09s.114.029.187.029h.444v.391h-.535c-.156 0-.292-.026-.407-.077s-.203-.128-.265-.227a.676.676 0 0 1-.093-.363c0-.14.031-.262.091-.364s.148-.182.26-.237a.9.9 0 0 1 .399-.083h.847v2.053zm-1.156-.939h.531l-.5.939h-.542l.511-.939zm6.1-.088c0 .226-.044.417-.131.575s-.204.276-.353.358c-.148.082-.314.122-.497.122s-.35-.041-.498-.123c-.148-.082-.265-.202-.352-.358s-.129-.348-.129-.574c0-.226.043-.417.129-.575s.204-.276.352-.358c.148-.082.314-.122.498-.122s.35.041.497.122c.148.082.266.201.353.358s.131.349.131.575zm-.507 0c0-.134-.019-.247-.057-.339s-.091-.162-.162-.21c-.07-.047-.155-.071-.254-.071s-.183.024-.254.071c-.071.047-.125.117-.163.21s-.056.205-.056.339.019.247.056.339c.038.092.093.162.163.21s.155.071.254.071.183-.024.254-.071.125-.117.162-.21a.89.89 0 0 0 .057-.339zm1.842 1.027v-2.053h.497v.824h.809v-.824h.495v2.053h-.495v-.825h-.809v.825h-.497zm3.067 0v-.389l.056-.006c.072-.009.131-.038.177-.087s.08-.13.103-.239c.024-.11.04-.258.046-.444l.033-.888h1.441v2.053h-.48v-1.662h-.503l-.032.68c-.011.235-.041.424-.089.569s-.123.249-.224.315a.725.725 0 0 1-.404.099h-.124zm3.655 0H72.3l.693-2.053h.661l.693 2.053h-.533l-.482-1.536h-.016l-.481 1.536zm-.071-.809h1.115v.377h-1.115v-.377zm2.849-1.245h.495v1.183h.017l.808-1.183h.427v2.053h-.496v-1.185h-.013l-.818 1.185h-.42v-2.053zm1.076-.545h.323a.37.37 0 0 1-.142.303c-.093.076-.221.114-.381.114s-.288-.038-.382-.114a.368.368 0 0 1-.139-.303h.32c-.001.044.014.084.045.12s.083.054.156.054c.072 0 .123-.018.154-.053s.046-.076.047-.121zm2.029 2.599v-2.053h.497v.824h.809v-.824h.495v2.053h-.495v-.825h-.809v.825h-.497zm-54.129-2.054a10.33 10.33 0 0 1-16.658.793 10.328 10.328 0 0 1-.641-12.092A10.327 10.327 0 0 1 18.571 5.97a10.333 10.333 0 0 1 5.365 3.423l-2.231 1.841a7.438 7.438 0 1 0 .467 8.835l2.413 1.595z"/>
      <path fill="#fff" style="fill:var(--color1, #fff)" d="m25.695 14.198-5.968-2.16 5.837-4.185.13 6.345z"/>
    </symbol>
    <symbol id="de" viewBox="0 0 81 32">
      <path fill="#fff" style="fill:var(--color1, #fff)" d="M30.753 17.318V7.461h4.255c.732 0 1.372.133 1.92.399s.975.65 1.28 1.15c.305.501.457 1.101.457 1.8 0 .706-.157 1.301-.472 1.786-.311.484-.749.85-1.314 1.097-.561.247-1.218.371-1.968.371H32.37v-2.079h2.002c.314 0 .582-.038.804-.116.225-.08.396-.207.515-.38.122-.173.183-.399.183-.679 0-.282-.061-.512-.183-.688a1.024 1.024 0 0 0-.515-.395 2.2 2.2 0 0 0-.804-.13h-.943v7.72h-2.676zm5.775-4.524 2.464 4.524h-2.907l-2.406-4.524h2.849zm6.7 4.658c-.789 0-1.47-.151-2.041-.452a3.17 3.17 0 0 1-1.314-1.309c-.305-.571-.457-1.255-.457-2.05 0-.764.154-1.431.462-2.002s.743-1.016 1.304-1.333c.561-.318 1.224-.476 1.987-.476.558 0 1.064.087 1.516.26s.839.425 1.16.756c.321.327.568.725.741 1.194s.26.996.26 1.583v.616h-6.603v-1.463h4.158a1.022 1.022 0 0 0-.163-.558 1.04 1.04 0 0 0-.419-.38 1.23 1.23 0 0 0-.592-.14 1.27 1.27 0 0 0-.592.14c-.18.09-.324.215-.433.375a1.06 1.06 0 0 0-.169.563v1.579c0 .237.05.449.149.635s.242.332.428.438c.186.106.41.159.673.159.183 0 .35-.026.501-.077.154-.051.285-.125.395-.221a.905.905 0 0 0 .241-.356h2.426a2.774 2.774 0 0 1-.592 1.338c-.311.375-.724.667-1.237.876-.511.205-1.107.308-1.791.308zm11.46-5.12h-2.445c-.013-.151-.066-.281-.159-.39s-.213-.193-.361-.25a1.227 1.227 0 0 0-.481-.091c-.228 0-.424.042-.587.125s-.244.202-.241.356a.4.4 0 0 0 .139.303c.1.093.291.165.573.217l1.501.27c.757.138 1.32.371 1.69.698.372.324.56.759.563 1.304-.003.526-.16.983-.471 1.372-.308.385-.73.683-1.266.895-.532.209-1.141.313-1.824.313-1.129 0-2.013-.231-2.652-.693-.635-.462-.99-1.072-1.064-1.829h2.637a.758.758 0 0 0 .347.544c.199.125.449.188.751.188.244 0 .445-.042.602-.125.16-.083.242-.202.245-.356-.003-.141-.074-.253-.212-.337-.135-.083-.347-.151-.635-.202l-1.309-.231c-.754-.132-1.319-.382-1.694-.751s-.561-.844-.558-1.425c-.003-.513.131-.948.404-1.304.276-.359.669-.632 1.179-.818.514-.189 1.121-.284 1.824-.284 1.068 0 1.911.221 2.527.664.619.443.945 1.056.977 1.838zm5.619-2.407v1.925h-4.87V9.925h4.87zM56.38 8.154h2.656v6.786c0 .103.018.189.053.26.035.067.09.119.164.154a.718.718 0 0 0 .284.048c.08 0 .173-.01.279-.029.109-.019.189-.035.241-.048l.385 1.867a9.326 9.326 0 0 1-.51.13 4.515 4.515 0 0 1-.78.101c-.609.032-1.121-.03-1.535-.188-.414-.16-.725-.412-.934-.756s-.309-.773-.303-1.29V8.153zm7.071 9.279c-.472 0-.889-.077-1.251-.231-.36-.157-.642-.395-.847-.712s-.308-.722-.308-1.213c0-.404.069-.749.207-1.035.138-.289.331-.525.578-.707s.534-.322.862-.419a5.261 5.261 0 0 1 1.068-.188c.414-.032.746-.071.996-.116.253-.048.436-.114.549-.197a.41.41 0 0 0 .169-.342v-.019c0-.193-.074-.34-.221-.443s-.337-.154-.568-.154c-.253 0-.46.056-.621.168-.157.109-.252.278-.284.505h-2.445c.032-.449.175-.863.428-1.242.257-.382.631-.687 1.121-.914.491-.231 1.104-.347 1.839-.347.529 0 1.004.063 1.425.188.42.122.778.294 1.073.515.295.218.52.475.674.77.157.292.236.61.236.953v5.063h-2.484v-1.04h-.058a2.148 2.148 0 0 1-.539.669c-.209.17-.448.294-.717.371-.266.077-.56.116-.881.116zm.867-1.675c.202 0 .392-.042.568-.125.18-.083.326-.204.438-.361s.168-.348.168-.573v-.616c-.07.029-.146.056-.226.082a3.03 3.03 0 0 1-.25.072 5.932 5.932 0 0 1-.582.116 1.508 1.508 0 0 0-.506.159.761.761 0 0 0-.289.265.666.666 0 0 0-.091.347c0 .205.072.363.217.472s.329.164.553.164zm5.081 1.56V9.925h2.58v1.405h.077c.135-.52.348-.9.64-1.141.295-.241.64-.361 1.035-.361.116 0 .23.01.342.029.116.016.226.04.332.072v2.267c-.131-.045-.294-.079-.486-.101s-.358-.034-.496-.034c-.26 0-.494.059-.703.178a1.254 1.254 0 0 0-.486.491 1.461 1.461 0 0 0-.178.736v3.85H69.4zm10.589-7.393v1.925h-4.871V9.925h4.871zm-3.927-1.771h2.657v6.786c0 .103.018.189.053.26.035.067.09.119.164.154a.718.718 0 0 0 .284.048c.08 0 .174-.01.279-.029.109-.019.189-.035.241-.048l.385 1.867a9.326 9.326 0 0 1-.51.13 4.515 4.515 0 0 1-.78.101c-.61.032-1.121-.03-1.536-.188-.414-.16-.725-.412-.934-.756s-.309-.773-.303-1.29V8.153zM36.729 21.561c0 .226-.043.417-.13.575s-.205.276-.353.358c-.148.082-.313.122-.497.122s-.351-.041-.498-.123-.265-.202-.352-.358c-.086-.157-.129-.348-.129-.574s.043-.417.129-.575c.087-.157.204-.276.352-.358s.314-.122.498-.122.35.041.497.122.266.201.353.358c.087.157.13.349.13.575zm-.508 0c0-.134-.019-.247-.057-.339s-.092-.162-.162-.21c-.07-.047-.155-.071-.254-.071s-.183.024-.254.071c-.071.047-.125.117-.163.21s-.056.205-.056.339.019.247.056.339c.038.092.093.162.163.21s.155.071.254.071.184-.024.254-.071.125-.117.162-.21a.89.89 0 0 0 .057-.339zm2.333.149v.878h-.49v-1.54h.466v.283h.017c.034-.094.092-.168.174-.222s.18-.081.294-.081a.494.494 0 0 1 .468.276.633.633 0 0 1 .066.303v.982h-.491v-.885a.283.283 0 0 0-.065-.201.231.231 0 0 0-.181-.072c-.051 0-.097.011-.136.034s-.069.054-.09.095a.342.342 0 0 0-.032.15zm2.834-1.175v2.053h-.491v-2.053h.491zm1.357 2.053v-1.54h.49v1.54h-.49zm.245-1.719c-.069 0-.128-.023-.177-.068s-.074-.102-.074-.166c0-.064.024-.119.074-.164s.108-.069.177-.069c.07 0 .129.023.177.069a.219.219 0 0 1 0 .33.253.253 0 0 1-.177.068zm2.092.841v.878h-.49v-1.54h.466v.283h.017c.034-.094.092-.168.174-.222s.18-.081.294-.081a.5.5 0 0 1 .468.276.633.633 0 0 1 .066.303v.982h-.49v-.885a.284.284 0 0 0-.066-.201.231.231 0 0 0-.181-.072c-.051 0-.097.011-.136.034s-.069.054-.09.095-.032.092-.032.15zm3.064.907c-.161 0-.3-.032-.417-.095s-.206-.155-.269-.274a.905.905 0 0 1-.093-.424c0-.159.032-.298.094-.417s.151-.213.265-.279a.784.784 0 0 1 .404-.1c.11 0 .21.017.301.051s.169.085.236.151c.066.067.117.149.154.248s.055.21.055.336v.122h-1.338v-.285h.882c0-.052-.013-.099-.037-.139s-.057-.073-.099-.095c-.041-.023-.089-.035-.143-.035a.29.29 0 0 0-.251.136.272.272 0 0 0-.04.141v.29c0 .063.012.118.037.165s.06.083.105.109c.046.026.1.039.163.039.043 0 .083-.006.118-.018s.066-.03.091-.053a.213.213 0 0 0 .057-.086l.45.013a.565.565 0 0 1-.371.437.95.95 0 0 1-.355.061zm3.011-1.048v.378h-.95v-.378h.95zm2.501-.419a.226.226 0 0 0-.089-.171.356.356 0 0 0-.224-.062c-.064 0-.117.008-.16.025s-.075.04-.096.069a.166.166 0 0 0-.033.099c-.002.031.005.058.018.081s.034.044.06.062c.027.017.059.033.096.046s.079.025.127.035l.176.04c.102.022.191.052.269.088s.144.081.197.131c.053.051.094.109.121.175s.042.14.042.223c0 .13-.033.241-.098.334s-.158.164-.28.214c-.121.049-.267.074-.438.074s-.322-.026-.449-.077-.227-.13-.298-.235a.713.713 0 0 1-.109-.398h.475c.004.066.022.121.053.165s.075.078.13.1c.055.023.12.034.192.034.067 0 .124-.009.171-.027s.084-.043.109-.075a.17.17 0 0 0 .039-.11c0-.039-.012-.072-.036-.099s-.059-.052-.108-.072a1.067 1.067 0 0 0-.184-.057l-.215-.05c-.178-.041-.318-.107-.42-.198s-.153-.215-.152-.371c-.001-.127.033-.238.102-.334s.164-.17.286-.224c.122-.053.26-.08.416-.08.159 0 .297.027.414.081s.209.129.274.226a.6.6 0 0 1 .099.337h-.475zm2.518 1.467c-.163 0-.302-.033-.418-.1s-.204-.16-.267-.279c-.062-.12-.093-.258-.093-.415s.031-.296.093-.415c.063-.12.152-.213.268-.28s.255-.1.416-.1c.142 0 .267.026.372.077.107.051.189.124.249.219s.092.204.095.33h-.458c-.009-.079-.036-.141-.08-.186s-.101-.067-.171-.067c-.057 0-.107.016-.149.048s-.076.078-.1.14c-.024.061-.035.138-.035.229s.012.168.035.231c.024.062.057.109.1.141s.093.047.149.047a.229.229 0 0 0 .207-.114.335.335 0 0 0 .043-.138h.458c-.005.127-.037.238-.095.333s-.14.169-.246.222a.835.835 0 0 1-.374.078zm2.501-.907v.878h-.491v-2.053h.474v.796h.017c.035-.095.092-.169.171-.223s.177-.08.292-.08a.494.494 0 0 1 .47.274.644.644 0 0 1 .066.305v.982h-.49v-.885c.001-.086-.021-.152-.064-.201s-.104-.072-.183-.072c-.052 0-.097.011-.136.034s-.069.054-.091.095a.329.329 0 0 0-.033.15zm3.069.907c-.161 0-.3-.032-.417-.095s-.206-.155-.269-.274a.905.905 0 0 1-.093-.424c0-.159.032-.298.094-.417s.151-.213.265-.279a.784.784 0 0 1 .404-.1c.11 0 .21.017.301.051s.169.085.236.151c.066.067.117.149.154.248s.055.21.055.336v.122h-1.338v-.285h.882c0-.052-.013-.099-.037-.139s-.057-.073-.099-.095c-.041-.023-.089-.035-.143-.035a.29.29 0 0 0-.251.136.272.272 0 0 0-.04.141v.29c0 .063.012.118.037.165s.06.083.105.109c.046.026.1.039.163.039.043 0 .083-.006.118-.018s.066-.03.091-.053a.213.213 0 0 0 .057-.086l.45.013a.565.565 0 0 1-.371.437.95.95 0 0 1-.355.061zm2.026-.029v-1.54h.491v1.54h-.491zm.246-1.719c-.069 0-.128-.023-.178-.068s-.074-.102-.074-.166c0-.064.025-.119.074-.164s.109-.069.178-.069c.07 0 .129.023.177.069.05.045.074.1.074.164s-.024.12-.074.166a.253.253 0 0 1-.177.068zm2.164 1.741a.566.566 0 0 1-.532-.353 1.019 1.019 0 0 1-.083-.438c0-.181.029-.33.086-.447s.133-.204.225-.26a.576.576 0 0 1 .509-.042c.057.028.105.063.142.106s.066.089.085.135h.01v-.777h.49v2.053h-.485v-.25h-.015c-.021.047-.05.092-.088.133s-.086.075-.143.1a.497.497 0 0 1-.201.038zm.171-.382c.059 0 .11-.017.152-.05s.075-.082.097-.143a.618.618 0 0 0 .034-.217c0-.084-.011-.157-.034-.218s-.055-.108-.097-.14a.239.239 0 0 0-.152-.049c-.061 0-.113.017-.155.05s-.074.081-.096.141c-.021.061-.032.133-.032.216s.011.155.033.217c.022.061.054.109.095.143s.094.05.155.05zm3.111-.305v-.875h.489v1.54h-.467v-.287h-.016c-.034.094-.092.169-.174.225s-.18.082-.296.082a.492.492 0 0 1-.463-.274.682.682 0 0 1-.067-.305v-.982h.49v.885c.001.084.023.149.066.198s.103.072.178.072a.243.243 0 0 0 .224-.127.313.313 0 0 0 .035-.152zm2.336-.213v.878h-.49v-1.54h.466v.283h.017c.034-.094.092-.168.174-.222s.18-.081.294-.081a.494.494 0 0 1 .468.276.633.633 0 0 1 .066.303v.982h-.49v-.885c.001-.086-.021-.152-.065-.201s-.104-.072-.181-.072c-.052 0-.097.011-.137.034s-.069.054-.09.095a.329.329 0 0 0-.032.15zm3.062 1.488c-.146 0-.271-.02-.376-.061s-.186-.097-.246-.167-.095-.151-.107-.241l.464-.026c.009.031.025.059.048.082s.055.041.093.054a.43.43 0 0 0 .136.019c.082 0 .15-.02.204-.06s.081-.109.081-.208v-.271h-.017c-.019.047-.049.09-.088.127s-.088.067-.148.088a.587.587 0 0 1-.2.032.625.625 0 0 1-.309-.078.57.57 0 0 1-.224-.245.965.965 0 0 1-.083-.428c0-.18.029-.328.086-.444s.133-.204.226-.26a.576.576 0 0 1 .51-.042.434.434 0 0 1 .143.106.507.507 0 0 1 .085.135h.014v-.264h.488v1.546c0 .13-.033.24-.098.33s-.157.157-.275.204a1.09 1.09 0 0 1-.408.07zm.015-.988c.059 0 .11-.016.152-.047s.075-.077.097-.135a.582.582 0 0 0 .034-.212c0-.084-.011-.155-.034-.216s-.055-.108-.097-.14a.239.239 0 0 0-.152-.049c-.061 0-.112.017-.154.05s-.074.081-.096.141c-.021.06-.032.131-.032.214s.011.153.033.212c.022.059.054.104.095.135s.094.047.154.047zM24.587 21.664a10.33 10.33 0 0 1-16.658.793 10.328 10.328 0 0 1-.641-12.092A10.327 10.327 0 0 1 18.571 5.97a10.333 10.333 0 0 1 5.365 3.423l-2.231 1.841a7.438 7.438 0 1 0 .467 8.835l2.413 1.595z"/>
      <path fill="#fff" style="fill:var(--color1, #fff)" d="m25.695 14.198-5.968-2.16 5.837-4.185.13 6.345z"/>
    </symbol>
    <symbol id="en" viewBox="0 0 81 32">
      <path fill="#fff" style="fill:var(--color1, #fff)" d="M30.753 17.318V7.461h4.255c.732 0 1.372.133 1.92.399s.975.65 1.28 1.15c.305.501.457 1.101.457 1.8 0 .706-.157 1.301-.472 1.786-.311.484-.749.85-1.314 1.097-.561.247-1.218.371-1.968.371H32.37v-2.079h2.002c.314 0 .582-.038.804-.116.225-.08.396-.207.515-.38.122-.173.183-.399.183-.679 0-.282-.061-.512-.183-.688a1.024 1.024 0 0 0-.515-.395 2.2 2.2 0 0 0-.804-.13h-.943v7.72h-2.676zm5.775-4.524 2.464 4.524h-2.907l-2.406-4.524h2.849zm6.7 4.658c-.789 0-1.47-.151-2.041-.452a3.17 3.17 0 0 1-1.314-1.309c-.305-.571-.457-1.255-.457-2.05 0-.764.154-1.431.462-2.002s.743-1.016 1.304-1.333c.561-.318 1.224-.476 1.987-.476.558 0 1.064.087 1.516.26s.839.425 1.16.756c.321.327.568.725.741 1.194s.26.996.26 1.583v.616h-6.603v-1.463h4.158a1.022 1.022 0 0 0-.163-.558 1.04 1.04 0 0 0-.419-.38 1.23 1.23 0 0 0-.592-.14 1.27 1.27 0 0 0-.592.14c-.18.09-.324.215-.433.375a1.06 1.06 0 0 0-.169.563v1.579c0 .237.05.449.149.635s.242.332.428.438c.186.106.41.159.673.159.183 0 .35-.026.501-.077.154-.051.285-.125.395-.221a.905.905 0 0 0 .241-.356h2.426a2.774 2.774 0 0 1-.592 1.338c-.311.375-.724.667-1.237.876-.511.205-1.107.308-1.791.308zm11.46-5.12h-2.445c-.013-.151-.066-.281-.159-.39s-.213-.193-.361-.25a1.227 1.227 0 0 0-.481-.091c-.228 0-.424.042-.587.125s-.244.202-.241.356a.4.4 0 0 0 .139.303c.1.093.291.165.573.217l1.501.27c.757.138 1.32.371 1.69.698.372.324.56.759.563 1.304-.003.526-.16.983-.471 1.372-.308.385-.73.683-1.266.895-.532.209-1.141.313-1.824.313-1.129 0-2.013-.231-2.652-.693-.635-.462-.99-1.072-1.064-1.829h2.637a.758.758 0 0 0 .347.544c.199.125.449.188.751.188.244 0 .445-.042.602-.125.16-.083.242-.202.245-.356-.003-.141-.074-.253-.212-.337-.135-.083-.347-.151-.635-.202l-1.309-.231c-.754-.132-1.319-.382-1.694-.751s-.561-.844-.558-1.425c-.003-.513.131-.948.404-1.304.276-.359.669-.632 1.179-.818.514-.189 1.121-.284 1.824-.284 1.068 0 1.911.221 2.527.664.619.443.945 1.056.977 1.838zm5.619-2.407v1.925h-4.87V9.925h4.87zM56.38 8.154h2.656v6.786c0 .103.018.189.053.26.035.067.09.119.164.154a.718.718 0 0 0 .284.048c.08 0 .173-.01.279-.029.109-.019.189-.035.241-.048l.385 1.867a9.326 9.326 0 0 1-.51.13 4.515 4.515 0 0 1-.78.101c-.609.032-1.121-.03-1.535-.188-.414-.16-.725-.412-.934-.756s-.309-.773-.303-1.29V8.153zm7.071 9.279c-.472 0-.889-.077-1.251-.231-.36-.157-.642-.395-.847-.712s-.308-.722-.308-1.213c0-.404.069-.749.207-1.035.138-.289.331-.525.578-.707s.534-.322.862-.419a5.261 5.261 0 0 1 1.068-.188c.414-.032.746-.071.996-.116.253-.048.436-.114.549-.197a.41.41 0 0 0 .169-.342v-.019c0-.193-.074-.34-.221-.443s-.337-.154-.568-.154c-.253 0-.46.056-.621.168-.157.109-.252.278-.284.505h-2.445c.032-.449.175-.863.428-1.242.257-.382.631-.687 1.121-.914.491-.231 1.104-.347 1.839-.347.529 0 1.004.063 1.425.188.42.122.778.294 1.073.515.295.218.52.475.674.77.157.292.236.61.236.953v5.063h-2.484v-1.04h-.058a2.148 2.148 0 0 1-.539.669c-.209.17-.448.294-.717.371-.266.077-.56.116-.881.116zm.867-1.675c.202 0 .392-.042.568-.125.18-.083.326-.204.438-.361s.168-.348.168-.573v-.616c-.07.029-.146.056-.226.082a3.03 3.03 0 0 1-.25.072 5.932 5.932 0 0 1-.582.116 1.508 1.508 0 0 0-.506.159.761.761 0 0 0-.289.265.666.666 0 0 0-.091.347c0 .205.072.363.217.472s.329.164.553.164zm5.081 1.56V9.925h2.58v1.405h.077c.135-.52.348-.9.64-1.141.295-.241.64-.361 1.035-.361.116 0 .23.01.342.029.116.016.226.04.332.072v2.267c-.131-.045-.294-.079-.486-.101s-.358-.034-.496-.034c-.26 0-.494.059-.703.178a1.254 1.254 0 0 0-.486.491 1.461 1.461 0 0 0-.178.736v3.85H69.4zm10.589-7.393v1.925h-4.871V9.925h4.871zm-3.927-1.771h2.657v6.786c0 .103.018.189.053.26.035.067.09.119.164.154a.718.718 0 0 0 .284.048c.08 0 .174-.01.279-.029.109-.019.189-.035.241-.048l.385 1.867a9.326 9.326 0 0 1-.51.13 4.515 4.515 0 0 1-.78.101c-.61.032-1.121-.03-1.536-.188-.414-.16-.725-.412-.934-.756s-.309-.773-.303-1.29V8.153zM39.314 22.965h-.759v-2.053h.758c.209 0 .39.041.541.123s.269.199.351.353c.082.153.123.336.123.549s-.041.398-.123.551c-.082.154-.198.272-.35.354s-.332.122-.541.122zm-.262-.423h.244c.115 0 .212-.019.292-.058s.141-.103.181-.192c.042-.089.063-.207.063-.355s-.021-.265-.063-.353c-.041-.088-.102-.152-.183-.191s-.179-.059-.297-.059h-.237v1.207zm2.611.423v-1.54h.491v1.54h-.491zm.245-1.72c-.069 0-.128-.023-.178-.068s-.074-.102-.074-.166c0-.064.025-.119.074-.164s.109-.069.178-.069c.07 0 .129.023.177.069.05.045.074.1.074.164s-.024.12-.074.166a.253.253 0 0 1-.177.068zm3.096.18-.529 1.54h-.561l-.527-1.54h.517l.283 1.061h.016l.285-1.061h.517zm1.902 1.569c-.161 0-.301-.033-.417-.099s-.205-.16-.268-.279c-.062-.12-.093-.258-.093-.416s.031-.297.093-.416c.063-.12.152-.213.268-.279s.256-.1.417-.1c.162 0 .3.033.416.1s.206.159.268.279c.063.119.094.258.094.416s-.031.296-.094.416c-.062.119-.152.212-.268.279s-.255.099-.416.099zm.003-.37c.059 0 .109-.018.149-.054s.072-.086.093-.15a.684.684 0 0 0 .033-.223c0-.086-.011-.16-.033-.225s-.053-.114-.093-.15-.091-.054-.149-.054c-.061 0-.112.018-.154.054s-.073.086-.095.15a.722.722 0 0 0-.032.225c0 .084.011.158.032.223s.054.114.095.15a.23.23 0 0 0 .154.054zm2.071.341v-1.54h.476v.281h.016c.028-.102.074-.177.137-.227s.137-.075.221-.075a.562.562 0 0 1 .137.018v.426a.765.765 0 0 0-.192-.026c-.058 0-.111.013-.157.039s-.083.061-.11.107a.316.316 0 0 0-.039.16v.836h-.491zm2.872.029c-.162 0-.302-.033-.418-.1s-.205-.16-.267-.279c-.062-.12-.093-.258-.093-.415s.031-.296.093-.415c.063-.12.152-.213.268-.28s.255-.1.416-.1c.143 0 .267.026.372.077s.189.124.248.219a.63.63 0 0 1 .095.33h-.458c-.009-.079-.036-.141-.08-.186s-.1-.067-.171-.067c-.057 0-.107.016-.149.048s-.076.078-.1.14c-.023.061-.035.138-.035.229s.012.168.035.231c.024.062.058.109.1.141s.093.047.149.047c.046 0 .085-.01.12-.029s.064-.048.087-.085a.335.335 0 0 0 .043-.138h.458c-.005.127-.037.238-.095.333s-.14.169-.245.222a.835.835 0 0 1-.374.078zm2.73 0c-.161 0-.3-.032-.417-.095s-.206-.155-.269-.274a.905.905 0 0 1-.093-.424c0-.159.032-.298.094-.417s.151-.213.266-.279a.784.784 0 0 1 .404-.1c.11 0 .21.017.301.051s.169.085.236.151c.066.067.117.149.154.248s.055.21.055.336v.122h-1.338v-.285h.882c-.001-.052-.013-.099-.037-.139s-.057-.073-.099-.095a.288.288 0 0 0-.143-.035c-.055 0-.104.012-.148.037a.272.272 0 0 0-.143.24v.29c0 .063.012.118.037.165s.06.083.105.109c.046.026.1.039.163.039.043 0 .083-.006.118-.018s.066-.03.091-.053a.224.224 0 0 0 .057-.086l.45.013a.565.565 0 0 1-.371.437.95.95 0 0 1-.355.061zm4.397 0c-.162 0-.301-.033-.417-.099s-.205-.16-.268-.279c-.063-.12-.093-.258-.093-.416s.031-.297.093-.416c.063-.12.152-.213.268-.279s.255-.1.417-.1c.161 0 .3.033.416.1s.206.159.268.279c.063.119.094.258.094.416s-.031.296-.094.416c-.062.119-.151.212-.268.279s-.255.099-.416.099zm.003-.37c.059 0 .108-.018.149-.054s.072-.086.093-.15a.684.684 0 0 0 .033-.223c0-.086-.011-.16-.033-.225s-.052-.114-.093-.15a.217.217 0 0 0-.149-.054c-.061 0-.113.018-.155.054s-.073.086-.095.15a.722.722 0 0 0-.032.225c0 .084.011.158.032.223.022.064.054.114.095.15s.094.054.155.054zm2.561-.538v.878h-.49v-1.54h.466v.283h.017c.034-.094.092-.168.175-.222s.18-.081.294-.081c.108 0 .202.024.282.073.081.048.143.116.187.203s.067.187.066.303v.982h-.491v-.885c.001-.086-.021-.152-.065-.201s-.104-.072-.181-.072c-.052 0-.097.011-.136.034s-.069.054-.09.095a.342.342 0 0 0-.032.15zm2.834-1.175v2.053h-.49v-2.053h.49zm1.357 2.054v-1.54h.491v1.54h-.491zm.245-1.72c-.069 0-.128-.023-.178-.068s-.074-.102-.074-.166c0-.064.025-.119.074-.164s.109-.069.178-.069c.069 0 .129.023.177.069.05.045.074.1.074.164s-.024.12-.074.166a.253.253 0 0 1-.177.068zm2.092.841v.878h-.49v-1.54h.466v.283h.017c.034-.094.092-.168.175-.222s.18-.081.294-.081a.494.494 0 0 1 .468.276.633.633 0 0 1 .066.303v.982h-.491v-.885c.001-.086-.021-.152-.065-.201s-.104-.072-.181-.072c-.052 0-.097.011-.136.034s-.069.054-.09.095a.342.342 0 0 0-.032.15zm3.064.908c-.161 0-.3-.032-.417-.095s-.206-.155-.268-.274a.893.893 0 0 1-.093-.424c0-.159.031-.298.094-.417s.151-.213.266-.279a.784.784 0 0 1 .404-.1c.11 0 .21.017.301.051a.655.655 0 0 1 .39.399c.036.099.055.21.055.336v.122h-1.339v-.285h.882c-.001-.052-.013-.099-.037-.139s-.057-.073-.099-.095c-.041-.023-.089-.035-.143-.035a.29.29 0 0 0-.251.136.272.272 0 0 0-.04.141v.29c0 .063.012.118.037.165s.06.083.105.109a.372.372 0 0 0 .281.021.248.248 0 0 0 .091-.053.224.224 0 0 0 .057-.086l.45.013a.565.565 0 0 1-.371.437.95.95 0 0 1-.355.061zM24.587 21.664a10.33 10.33 0 0 1-16.658.793 10.328 10.328 0 0 1-.641-12.092A10.327 10.327 0 0 1 18.571 5.97a10.333 10.333 0 0 1 5.365 3.423l-2.231 1.841a7.438 7.438 0 1 0 .467 8.835l2.413 1.595z"/>
      <path fill="#fff" style="fill:var(--color1, #fff)" d="m25.695 14.198-5.968-2.16 5.837-4.185.13 6.345z"/>
    </symbol>
  </defs>
</svg>