<svg aria-hidden="true" style="position:absolute;width:0;height:0;overflow:hidden" xmlns="http://www.w3.org/2000/svg">
  <defs>
    <symbol id="logo" viewBox="0 0 81 32">
      <path fill="#fff" style="fill:var(--color1, #fff)" d="M30.753 17.318V7.461h4.255c.732 0 1.372.133 1.92.399s.975.65 1.28 1.15c.305.501.457 1.101.457 1.8 0 .706-.157 1.301-.472 1.786-.311.484-.749.85-1.314 1.097-.561.247-1.218.371-1.968.371H32.37v-2.079h2.002c.314 0 .582-.038.804-.116.225-.08.396-.207.515-.38.122-.173.183-.399.183-.679 0-.282-.061-.512-.183-.688a1.024 1.024 0 0 0-.515-.395 2.2 2.2 0 0 0-.804-.13h-.943v7.72h-2.676zm5.775-4.524 2.464 4.524h-2.907l-2.406-4.524h2.849zm6.7 4.658c-.789 0-1.47-.151-2.041-.452a3.17 3.17 0 0 1-1.314-1.309c-.305-.571-.457-1.255-.457-2.05 0-.764.154-1.431.462-2.002s.743-1.016 1.304-1.333c.561-.318 1.224-.476 1.987-.476.558 0 1.064.087 1.516.26s.839.425 1.16.756c.321.327.568.725.741 1.194s.26.996.26 1.583v.616h-6.603v-1.463h4.158a1.022 1.022 0 0 0-.163-.558 1.04 1.04 0 0 0-.419-.38 1.23 1.23 0 0 0-.592-.14 1.27 1.27 0 0 0-.592.14c-.18.09-.324.215-.433.375a1.06 1.06 0 0 0-.169.563v1.579c0 .237.05.449.149.635s.242.332.428.438c.186.106.41.159.673.159.183 0 .35-.026.501-.077.154-.051.285-.125.395-.221a.905.905 0 0 0 .241-.356h2.426a2.774 2.774 0 0 1-.592 1.338c-.311.375-.724.667-1.237.876-.511.205-1.107.308-1.791.308zm11.46-5.12h-2.445c-.013-.151-.066-.281-.159-.39s-.213-.193-.361-.25a1.227 1.227 0 0 0-.481-.091c-.228 0-.424.042-.587.125s-.244.202-.241.356a.4.4 0 0 0 .139.303c.1.093.291.165.573.217l1.501.27c.757.138 1.32.371 1.69.698.372.324.56.759.563 1.304-.003.526-.16.983-.471 1.372-.308.385-.73.683-1.266.895-.532.209-1.141.313-1.824.313-1.129 0-2.013-.231-2.652-.693-.635-.462-.99-1.072-1.064-1.829h2.637a.758.758 0 0 0 .347.544c.199.125.449.188.751.188.244 0 .445-.042.602-.125.16-.083.242-.202.245-.356-.003-.141-.074-.253-.212-.337-.135-.083-.347-.151-.635-.202l-1.309-.231c-.754-.132-1.319-.382-1.694-.751s-.561-.844-.558-1.425c-.003-.513.131-.948.404-1.304.276-.359.669-.632 1.179-.818.514-.189 1.121-.284 1.824-.284 1.068 0 1.911.221 2.527.664.619.443.945 1.056.977 1.838zm5.619-2.407v1.925h-4.87V9.925h4.87zM56.38 8.154h2.656v6.786c0 .103.018.189.053.26.035.067.09.119.164.154a.718.718 0 0 0 .284.048c.08 0 .173-.01.279-.029.109-.019.189-.035.241-.048l.385 1.867a9.326 9.326 0 0 1-.51.13 4.515 4.515 0 0 1-.78.101c-.609.032-1.121-.03-1.535-.188-.414-.16-.725-.412-.934-.756s-.309-.773-.303-1.29V8.153zm7.071 9.279c-.472 0-.889-.077-1.251-.231-.36-.157-.642-.395-.847-.712s-.308-.722-.308-1.213c0-.404.069-.749.207-1.035.138-.289.331-.525.578-.707s.534-.322.862-.419a5.261 5.261 0 0 1 1.068-.188c.414-.032.746-.071.996-.116.253-.048.436-.114.549-.197a.41.41 0 0 0 .169-.342v-.019c0-.193-.074-.34-.221-.443s-.337-.154-.568-.154c-.253 0-.46.056-.621.168-.157.109-.252.278-.284.505h-2.445c.032-.449.175-.863.428-1.242.257-.382.631-.687 1.121-.914.491-.231 1.104-.347 1.839-.347.529 0 1.004.063 1.425.188.42.122.778.294 1.073.515.295.218.52.475.674.77.157.292.236.61.236.953v5.063h-2.484v-1.04h-.058a2.148 2.148 0 0 1-.539.669c-.209.17-.448.294-.717.371-.266.077-.56.116-.881.116zm.867-1.675c.202 0 .392-.042.568-.125.18-.083.326-.204.438-.361s.168-.348.168-.573v-.616c-.07.029-.146.056-.226.082a3.03 3.03 0 0 1-.25.072 5.932 5.932 0 0 1-.582.116 1.508 1.508 0 0 0-.506.159.761.761 0 0 0-.289.265.666.666 0 0 0-.091.347c0 .205.072.363.217.472s.329.164.553.164zm5.081 1.56V9.925h2.58v1.405h.077c.135-.52.348-.9.64-1.141.295-.241.64-.361 1.035-.361.116 0 .23.01.342.029.116.016.226.04.332.072v2.267c-.131-.045-.294-.079-.486-.101s-.358-.034-.496-.034c-.26 0-.494.059-.703.178a1.254 1.254 0 0 0-.486.491 1.461 1.461 0 0 0-.178.736v3.85H69.4zm10.589-7.393v1.925h-4.871V9.925h4.871zm-3.927-1.771h2.657v6.786c0 .103.018.189.053.26.035.067.09.119.164.154a.718.718 0 0 0 .284.048c.08 0 .174-.01.279-.029.109-.019.189-.035.241-.048l.385 1.867a9.326 9.326 0 0 1-.51.13 4.515 4.515 0 0 1-.78.101c-.61.032-1.121-.03-1.536-.188-.414-.16-.725-.412-.934-.756s-.309-.773-.303-1.29V8.153zM30.65 23.718v-2.053h.848c.154 0 .286.03.398.09s.199.143.26.25c.061.106.091.23.091.371s-.031.266-.093.372c-.061.106-.149.187-.264.246s-.25.087-.407.087h-.523v-.391h.431c.075 0 .137-.013.188-.039s.089-.063.115-.109c.026-.047.039-.103.039-.165s-.013-.118-.039-.164c-.026-.047-.065-.083-.115-.108s-.113-.038-.188-.038h-.245v1.653h-.496zm4.824-1.027c0 .226-.043.417-.13.575s-.205.276-.353.358c-.148.082-.313.122-.497.122s-.351-.041-.498-.123-.265-.202-.352-.358c-.086-.157-.129-.348-.129-.574s.043-.417.129-.575c.087-.157.204-.276.352-.358s.314-.122.498-.122.35.041.497.122.266.201.353.358c.087.157.13.349.13.575zm-.507 0c0-.134-.019-.247-.057-.339s-.092-.162-.162-.21c-.07-.047-.155-.071-.254-.071s-.183.024-.254.071c-.071.047-.125.117-.163.21s-.056.205-.056.339.019.247.056.339c.038.092.093.162.163.21s.155.071.254.071.184-.024.254-.071.125-.117.162-.21a.89.89 0 0 0 .057-.339zm2.619 1.055c-.156 0-.295-.027-.416-.08s-.215-.129-.285-.224a.545.545 0 0 1-.106-.328h.499c.002.045.016.085.043.119s.063.061.109.08c.046.019.099.029.157.029s.111-.01.156-.031c.045-.021.081-.05.106-.087s.038-.08.037-.128c.001-.048-.013-.091-.041-.128s-.068-.067-.119-.087a.471.471 0 0 0-.18-.031h-.2v-.353h.2c.061 0 .114-.01.16-.03s.083-.048.109-.084a.206.206 0 0 0 .038-.126.22.22 0 0 0-.126-.203.374.374 0 0 0-.286 0 .254.254 0 0 0-.105.082.211.211 0 0 0-.041.123h-.474c.001-.122.035-.23.102-.323s.158-.167.273-.22c.116-.053.247-.079.395-.079s.276.026.388.077c.111.051.198.122.261.211s.093.188.093.3c.001.116-.037.211-.113.286s-.173.121-.292.138v.016c.159.019.279.07.36.154s.122.189.121.316c0 .119-.035.225-.105.317s-.166.164-.291.217a1.086 1.086 0 0 1-.426.078zm2.062-.028v-.389l.056-.006c.072-.009.131-.038.177-.087s.08-.13.103-.239c.024-.11.04-.258.046-.444l.033-.888h1.441v2.053h-.48v-1.662h-.502l-.032.68c-.011.235-.041.424-.089.569s-.123.249-.224.315a.725.725 0 0 1-.404.099h-.124zm3.47.028v-.393h.105c.057 0 .102-.006.137-.017s.062-.031.081-.057a.325.325 0 0 0 .05-.104l.023-.063-.758-1.447h.509l.456.922.367-.922h.501l-.706 1.627c-.037.08-.081.155-.131.225s-.113.124-.189.166a.585.585 0 0 1-.286.063h-.16zm2.829-2.082h.48v.654c0 .072.012.129.037.173s.066.077.121.097a.66.66 0 0 0 .219.03l.098-.002c.04-.001.084-.005.128-.008.046-.003.088-.008.127-.013s.07-.011.092-.018v.382c-.023.007-.055.014-.096.02a2.229 2.229 0 0 1-.258.024 1.272 1.272 0 0 1-.542-.07.625.625 0 0 1-.3-.227.664.664 0 0 1-.106-.389v-.654zm1.213 0h.483v2.053h-.483v-2.053zm1.934 2.054v-2.053h1.432v.403h-.936v.421h.862v.404h-.862v.422h.936v.403h-1.432zm2.787 0v-2.053h.497v.824h.809v-.824h.495v2.053h-.495v-.825h-.809v.825h-.497zm3.157 0v-2.053h.496v.824h.809v-.824h.495v2.053h-.495v-.825h-.809v.825h-.496zm4.794 0h-.495v-1.653h-.245c-.074 0-.137.011-.187.032s-.09.052-.116.094c-.026.041-.039.094-.039.157s.013.116.039.156c.026.04.065.07.116.09s.114.029.187.029h.444v.391h-.535c-.156 0-.292-.026-.407-.077s-.203-.128-.265-.227a.676.676 0 0 1-.093-.363c0-.14.031-.262.091-.364s.148-.182.26-.237a.9.9 0 0 1 .399-.083h.847v2.053zm-1.156-.939h.531l-.5.939h-.542l.511-.939zm6.1-.088c0 .226-.044.417-.131.575s-.204.276-.353.358c-.148.082-.314.122-.497.122s-.35-.041-.498-.123c-.148-.082-.265-.202-.352-.358s-.129-.348-.129-.574c0-.226.043-.417.129-.575s.204-.276.352-.358c.148-.082.314-.122.498-.122s.35.041.497.122c.148.082.266.201.353.358s.131.349.131.575zm-.507 0c0-.134-.019-.247-.057-.339s-.091-.162-.162-.21c-.07-.047-.155-.071-.254-.071s-.183.024-.254.071c-.071.047-.125.117-.163.21s-.056.205-.056.339.019.247.056.339c.038.092.093.162.163.21s.155.071.254.071.183-.024.254-.071.125-.117.162-.21a.89.89 0 0 0 .057-.339zm1.842 1.027v-2.053h.497v.824h.809v-.824h.495v2.053h-.495v-.825h-.809v.825h-.497zm3.067 0v-.389l.056-.006c.072-.009.131-.038.177-.087s.08-.13.103-.239c.024-.11.04-.258.046-.444l.033-.888h1.441v2.053h-.48v-1.662h-.503l-.032.68c-.011.235-.041.424-.089.569s-.123.249-.224.315a.725.725 0 0 1-.404.099h-.124zm3.655 0H72.3l.693-2.053h.661l.693 2.053h-.533l-.482-1.536h-.016l-.481 1.536zm-.071-.809h1.115v.377h-1.115v-.377zm2.849-1.245h.495v1.183h.017l.808-1.183h.427v2.053h-.496v-1.185h-.013l-.818 1.185h-.42v-2.053zm1.076-.545h.323a.37.37 0 0 1-.142.303c-.093.076-.221.114-.381.114s-.288-.038-.382-.114a.368.368 0 0 1-.139-.303h.32c-.001.044.014.084.045.12s.083.054.156.054c.072 0 .123-.018.154-.053s.046-.076.047-.121zm2.029 2.599v-2.053h.497v.824h.809v-.824h.495v2.053h-.495v-.825h-.809v.825h-.497zM24.587 21.664a10.33 10.33 0 0 1-16.658.793 10.328 10.328 0 0 1-.641-12.092A10.327 10.327 0 0 1 18.571 5.97a10.333 10.333 0 0 1 5.365 3.423l-2.231 1.841a7.438 7.438 0 1 0 .467 8.835l2.413 1.595z"/>
      <path fill="#fff" style="fill:var(--color1, #fff)" d="m25.695 14.198-5.968-2.16 5.837-4.185.13 6.345z"/>
    </symbol>
  </defs>
</svg>